<?xml version="1.0" encoding="UTF-8" standalone="no"?>
<svg
   width="256"
   height="256"
   viewBox="0 0 256 256"
   fill="none"
   version="1.1"
   id="svg15"
   sodipodi:docname="Ubuntu-Dark.svg"
   inkscape:version="1.4.2 (ebf0e94, 2025-05-08)"
   xmlns:inkscape="http://www.inkscape.org/namespaces/inkscape"
   xmlns:sodipodi="http://sodipodi.sourceforge.net/DTD/sodipodi-0.dtd"
   xmlns="http://www.w3.org/2000/svg"
   xmlns:svg="http://www.w3.org/2000/svg">
  <sodipodi:namedview
     id="namedview15"
     pagecolor="#ffffff"
     bordercolor="#000000"
     borderopacity="0.25"
     inkscape:showpageshadow="2"
     inkscape:pageopacity="0.0"
     inkscape:pagecheckerboard="0"
     inkscape:deskcolor="#d1d1d1"
     inkscape:zoom="2.2262815"
     inkscape:cx="34.362231"
     inkscape:cy="142.3899"
     inkscape:window-width="1850"
     inkscape:window-height="1014"
     inkscape:window-x="0"
     inkscape:window-y="0"
     inkscape:window-maximized="1"
     inkscape:current-layer="g15" />
  <g
     clip-path="url(#clip0_33_899)"
     id="g15">
    <path
       d="M 196,0 H 60 C 26.8629,0 0,26.8629 0,60 v 136 c 0,33.137 26.8629,60 60,60 h 136 c 33.137,0 60,-26.863 60,-60 V 60 C 256,26.8629 229.137,0 196,0 Z"
       fill="#242938"
       id="path1"
       style="display:inline" />
    <path
       d="m 128.62295,227.81062 c 56.01966,0 101.43356,-45.4139 101.43356,-101.43356 0,-56.020188 -45.4139,-101.433573 -101.43356,-101.433573 -56.020181,0 -101.433566,45.413385 -101.433566,101.433573 0,56.01966 45.413385,101.43356 101.433566,101.43356 z"
       fill="#f47421"
       id="path2"
       sodipodi:nodetypes="sssss"
       style="display:inline;stroke-width:1.28805" />
    <path
       d="m 128.62295,175.57266 c 27.17002,0 49.1956,-22.02558 49.1956,-49.1956 0,-27.170035 -22.02558,-49.195352 -49.1956,-49.195352 -27.17003,0 -49.195345,22.025317 -49.195345,49.195352 0,27.17002 22.025315,49.1956 49.195345,49.1956 z"
       stroke="#ffffff"
       stroke-width="11.0128"
       id="path3"
       style="display:inline" />
    <path
       d="m 59.647996,145.39633 c 10.50388,0 19.019019,-8.51527 19.019019,-19.01927 0,-10.50402 -8.515139,-19.01929 -19.019019,-19.01929 -10.50388,0 -19.019019,8.51527 -19.019019,19.01929 0,10.504 8.515139,19.01927 19.019019,19.01927 z"
       fill="#f47421"
       id="path4"
       style="display:inline;stroke-width:1.28805" />
    <path
       d="m 166.94229,126.37706 h 22.54079 z"
       fill="#000000"
       id="path5"
       style="display:inline;stroke-width:1.28805" />
    <path
       d="m 166.94229,126.37706 h 22.54079"
       stroke="#f47421"
       stroke-width="4.17043"
       id="path6"
       style="display:inline" />
    <path
       d="m 59.648125,139.91828 c 7.478648,0 13.541348,-6.06283 13.541348,-13.54122 0,-7.4784 -6.0627,-13.54123 -13.541348,-13.54123 -7.47852,0 -13.54122,6.06283 -13.54122,13.54123 0,7.47839 6.0627,13.54122 13.54122,13.54122 z"
       fill="#ffffff"
       id="path7"
       style="display:inline;stroke-width:1.28805" />
    <path
       d="m 146.63883,57.13367 c -5.25136,9.096691 -2.13429,20.728513 6.96189,25.980388 9.09617,5.252005 20.72851,2.135322 25.97987,-6.961369 5.25265,-9.096691 2.13558,-20.728512 -6.96059,-25.980517 -9.09747,-5.251876 -20.72852,-2.135193 -25.98117,6.961498 z"
       fill="#f47421"
       id="path8"
       style="display:inline;stroke-width:1.28805" />
    <path
       d="M 109.46328,159.56225 98.192879,179.08387 Z"
       fill="#000000"
       id="path9"
       style="display:inline;stroke-width:1.28805" />
    <path
       d="M 109.46328,159.56225 98.192879,179.08387"
       stroke="#f47421"
       stroke-width="4.17043"
       id="path10"
       style="display:inline" />
    <path
       d="m 151.38271,59.87257 c -3.7392,6.476678 -1.5199,14.758422 4.95639,18.497747 6.4763,3.739324 14.75843,1.520151 18.49762,-4.956527 3.7392,-6.476678 1.51989,-14.758423 -4.9564,-18.497747 -6.47629,-3.739196 -14.75842,-1.520151 -18.49761,4.956527 z"
       fill="#ffffff"
       id="path11"
       style="display:inline;stroke-width:1.28805" />
    <path
       d="m 179.58059,176.6018 c -5.25136,-9.09746 -16.8837,-12.21324 -25.97987,-6.96188 -9.09746,5.25265 -12.21325,16.8837 -6.96189,25.98116 5.25265,9.09618 16.8837,12.21325 25.98117,6.9606 9.09617,-5.25136 12.21324,-16.8837 6.96059,-25.97988 z"
       fill="#f47421"
       id="path12"
       style="display:inline;stroke-width:1.28805" />
    <path
       d="M 109.46328,93.191853 98.192879,73.670755 Z"
       fill="#000000"
       id="path13"
       style="display:inline;stroke-width:1.28805" />
    <path
       d="M 109.46328,93.191853 98.192879,73.670755"
       stroke="#f47421"
       stroke-width="4.17043"
       id="path14"
       style="display:inline" />
    <path
       d="m 174.83672,179.34019 c -3.73919,-6.47629 -12.02004,-8.69559 -18.49762,-4.9564 -6.47629,3.7392 -8.69559,12.02133 -4.95639,18.49762 3.73919,6.47758 12.02132,8.69559 18.49761,4.9564 6.47758,-3.7392 8.6956,-12.02004 4.9564,-18.49762 z"
       fill="#ffffff"
       id="path15"
       style="display:inline;stroke-width:1.28805" />
  </g>
  <defs
     id="defs15">
    <clipPath
       id="clip0_33_899">
      <rect
         width="256"
         height="256"
         fill="white"
         id="rect15" />
    </clipPath>
  </defs>
</svg>
